# xmcd
#
# Track frame offsets:
#	187
#	14505
#	26535
#	41380
#	60882
#	76027
#	92055
#	109772
#	128130
#	143357
#
# Disc length: 2120 seconds
# Revision: 9
# Processed by: cddbd v1.5.2PL0 Copyright (c) Steve Scherf et al.
# Submitted via: dBpowerAMP V12.0
#
DISCID=6108440a,6a08460a
DTITLE=Reba McEntire - It’s Your Call
DYEAR=1992
DGENRE=Country
TTITLE0=It’s Your Call
TTITLE1=Straight From You
TTITLE2=Take It Back
TTITLE3=Baby’s Gone Blues
TTITLE4=The Heart Won’t Lie
TTITLE5=One Last Good Hand
TTITLE6=He Wants to Get Married
TTITLE7=For Herself
TTITLE8=Will He Ever Go Away
TTITLE9=Lighter Shade of Blue
EXTD=
EXTT0=
EXTT1=
EXTT2=
EXTT3=
EXTT4=
EXTT5=
EXTT6=
EXTT7=
EXTT8=
EXTT9=
PLAYORDER=
